<?xml version="1.0" encoding="UTF-8" standalone="no"?>
<svg width="24px" height="16px" viewBox="0 0 24 16" version="1.1" xmlns="http://www.w3.org/2000/svg" xmlns:xlink="http://www.w3.org/1999/xlink" xmlns:sketch="http://www.bohemiancoding.com/sketch/ns">
    <!-- Generator: Sketch Beta 3.2.1 (9971) - http://www.bohemiancoding.com/sketch -->
    <title>Oval 4</title>
    <desc>Created with Sketch Beta.</desc>
    <defs></defs>
    <g id="Page-1" stroke="none" stroke-width="1" fill="none" fill-rule="evenodd" sketch:type="MSPage">
        <g id="Artboard" sketch:type="MSArtboardGroup" transform="translate(-857.000000, -341.000000)" fill="#F6F6F6">
            <g id="dialing" sketch:type="MSLayerGroup" transform="translate(750.000000, 58.000000)">
                <g id="Rectangle-11-+-Oval-4-+-Disconnect" transform="translate(75.000000, 265.000000)" sketch:type="MSShapeGroup">
                    <path d="M51.1015454,37.2932768 C50.4189031,37.7389647 49.5909161,38 48.6984127,38 C47.2914201,38 46.0447647,37.3512714 45.2751177,36.3530684 L45.2751177,36.3530684 C45.0086863,36.3841192 44.738657,36.4 44.4656085,36.4 C39.790182,36.4 36,31.7437614 36,26 C36,20.2562386 39.790182,15.6 44.4656085,15.6 C44.738657,15.6 45.0086863,15.6158808 45.2751177,15.6469316 L45.2751177,15.6469316 C46.0447647,14.6487286 47.2914201,14 48.6984127,14 C49.5909698,14 50.4190027,14.2610667 51.1016686,14.7068036 L51.1016686,14.7068036 C51.6361519,14.9757724 52,15.5076642 52,16.12004 L52,19.87996 C52,20.4923029 51.6361616,21.0243048 51.1015454,21.2932768 C50.4189031,21.7389647 49.5909161,22 48.6984127,22 C46.9626929,22 45.4709845,21.0127239 44.8178141,19.6 L43.6187407,19.6 C42.6840055,19.6 41.9259259,20.316384 41.9259259,21.2000884 L41.9259259,30.7999116 C41.9259259,31.6838126 42.6838249,32.4 43.6187407,32.4 L44.8178141,32.4 C45.4709845,30.9872761 46.9626929,30 48.6984127,30 C49.5909698,30 50.4190027,30.2610667 51.1016686,30.7068036 C51.6361519,30.9757724 52,31.5076642 52,32.12004 L52,35.87996 C52,36.4923029 51.6361616,37.0243048 51.1015454,37.2932768 L51.1015454,37.2932768 Z" id="Oval-4" transform="translate(44.000000, 26.000000) rotate(90.000000) translate(-44.000000, -26.000000) "></path>
                </g>
            </g>
        </g>
    </g>
</svg>